C:\GBW_MyPrograms\KinderuniversiteitApp\Resultaten\Ellis\Maui_v1.mot
version=1
nRows=16
nColumns=31
inDegrees=yes
endheader
                time	         pelvis_tilt	           pelvis_tx	           pelvis_ty	       hip_flexion_r	        knee_angle_r	       ankle_angle_r	       hip_flexion_l	        knee_angle_l	       ankle_angle_l	    lumbar_extension	          arm_flex_r	          arm_flex_l	hamstrings_r/activation	bifemsh_r/activation	glut_max_r/activation	iliopsoas_r/activation	rect_fem_r/activation	  vasti_r/activation	gastroc_r/activation	 soleus_r/activation	tib_ant_r/activation	hamstrings_l/activation	bifemsh_l/activation	glut_max_l/activation	iliopsoas_l/activation	rect_fem_l/activation	  vasti_l/activation	gastroc_l/activation	 soleus_l/activation	tib_ant_l/activation	
          0.00000000	         -0.76663616	          0.00000000	          1.02198159	         10.81422376	        -26.98542413	          7.43327535	         28.21250817	        -45.36390762	         -3.98018726	         -4.08504593	         -3.24880385	         -3.24872134	          0.48108184	          0.64287685	          0.46724810	          0.66474214	          0.59488271	          0.41533619	          0.05037071	          0.05018429	          0.90648748	          0.15557924	          0.66074673	          0.23141266	          0.70497142	          0.64521600	          0.32783259	          0.33678978	          0.05426809	          0.84197589	
          0.00764893	         -0.81072801	          0.00963566	          1.01477052	         10.29651628	        -26.78008819	          9.36642933	         29.06318295	        -44.80419397	         -2.71523332	         -4.08644172	         -3.18539464	         -3.18531693	          0.44303135	          0.62819826	          0.48451269	          0.63741562	          0.60880902	          0.46106708	          0.05053178	          0.05020126	          0.84319818	          0.15083810	          0.65778662	          0.24754344	          0.70307341	          0.63514179	          0.31740399	          0.29949948	          0.05117845	          0.86204250	
          0.01529786	         -0.85798039	          0.01934244	          1.00705176	          9.74570325	        -26.92336943	         11.65814884	         29.89345774	        -44.16244166	         -1.47467912	         -4.07613354	         -3.13301825	         -3.13294573	          0.39397101	          0.61595541	          0.50459072	          0.60272367	          0.63726906	          0.53792986	          0.13732292	          0.12615137	          0.75249067	          0.14801419	          0.65469354	          0.27026425	          0.70236496	          0.62758440	          0.30611881	          0.26623006	          0.05079419	          0.87875892	
          0.02294679	         -0.90769919	          0.02917644	          0.99899485	          9.06557170	        -27.04838830	         14.20618415	         30.68272538	        -43.42677327	         -0.30380558	         -4.04896922	         -3.09953476	         -3.09946765	          0.34997006	          0.58067050	          0.53478638	          0.54197554	          0.68612376	          0.64717655	          0.15746913	          0.13696641	          0.69484526	          0.14932016	          0.65109087	          0.28454830	          0.69179457	          0.61850845	          0.29718214	          0.23674060	          0.05064293	          0.88965661	
          0.03059572	         -0.95959157	          0.03911137	          0.99094730	          8.36889478	        -27.16681295	         16.62744181	         31.40361342	        -42.57267588	          0.74979940	         -4.00928809	         -3.08138192	         -3.08132071	          0.31081038	          0.53808834	          0.53936314	          0.53870809	          0.75178493	          0.70222807	          0.19657775	          0.15547134	          0.65485674	          0.14852907	          0.64114567	          0.30228843	          0.69680166	          0.61952632	          0.28749544	          0.21098502	          0.05057056	          0.87742706	
          0.03824465	         -1.01173686	          0.04899463	          0.98352874	          8.14401689	        -28.08863284	         18.60552574	         32.01876395	        -41.57062461	          1.60191290	         -3.97860330	         -3.05706994	         -3.05701486	          0.27616436	          0.52280463	          0.51650724	          0.64107916	          0.78789515	          0.78283907	          0.24932046	          0.18842940	          0.58987235	          0.15058494	          0.64371827	          0.30053809	          0.70392410	          0.61627741	          0.26846706	          0.22265499	          0.05177888	          0.83878100	
          0.04589358	         -1.07282546	          0.05891113	          0.97695698	          8.38182666	        -29.76322434	         20.04307859	         32.54129679	        -40.54883577	          2.25572158	         -3.93768943	         -3.04067230	         -3.04062397	          0.24541884	          0.51046087	          0.49471504	          0.66812395	          0.82958727	          0.84562445	          0.28902924	          0.24068517	          0.52382281	          0.19335739	          0.64033153	          0.30878570	          0.71758058	          0.61424504	          0.25180249	          0.25176678	          0.05180980	          0.79781270	
          0.05354251	         -1.13117392	          0.06908582	          0.97114333	          8.67418548	        -31.52026304	         21.11267800	         32.99758482	        -39.75887278	          2.73496453	         -3.87422215	         -3.06127649	         -3.06123500	          0.21820385	          0.49910726	          0.47223545	          0.65376879	          0.84825662	          0.89718864	          0.31971045	          0.29330403	          0.46498241	          0.27593011	          0.63907956	          0.30846881	          0.70707753	          0.60478797	          0.24619405	          0.26024586	          0.05053791	          0.72522101	
          0.06119144	         -1.18079032	          0.07962065	          0.96602663	          8.80141971	        -33.00713850	         21.95566503	         33.45851339	        -39.64266911	          2.88034088	         -3.78332383	         -3.13174193	         -3.13170785	          0.19432599	          0.49266745	          0.46996868	          0.64776431	          0.85716243	          0.93092586	          0.35301060	          0.33631432	          0.41268918	          0.34782040	          0.62134039	          0.32584560	          0.68603288	          0.60293015	          0.26031812	          0.30459944	          0.05520191	          0.64401819	
          0.06884038	         -1.22411142	          0.09053166	          0.96161206	          8.71629820	        -34.14245473	         22.61910263	         33.98855918	        -40.69833302	          3.19443040	         -3.66018136	         -3.25460779	         -3.25458111	          0.17902211	          0.49151652	          0.50932883	          0.61227333	          0.82415314	          0.94121451	          0.38737567	          0.37230041	          0.36625044	          0.37328694	          0.62289285	          0.34243929	          0.61187410	          0.60922875	          0.31882056	          0.32259231	          0.09602330	          0.57171347	
          0.07648931	         -1.26763119	          0.10183416	          0.95797916	          8.41552868	        -34.90556555	         23.09583723	         34.46510917	        -42.49020792	          3.88178242	         -3.49536525	         -3.43318896	         -3.43317009	          0.19503818	          0.49382217	          0.54576661	          0.57138284	          0.79410568	          0.92411215	          0.42104289	          0.39984525	          0.32502507	          0.34402421	          0.59691363	          0.39181816	          0.54325794	          0.64005309	          0.46183138	          0.32553201	          0.15401304	          0.50742499	
          0.08413824	         -1.32033126	          0.11352118	          0.95524171	          7.90639618	        -35.28263163	         23.35653810	         34.68071072	        -44.02450498	          4.52552271	         -3.27896555	         -3.66814343	         -3.66813239	          0.21223131	          0.49532911	          0.55421047	          0.53098463	          0.77627445	          0.88874011	          0.45425406	          0.41811984	          0.28843503	          0.34172707	          0.58884848	          0.45103954	          0.48221316	          0.64897359	          0.56656921	          0.29140595	          0.17378012	          0.45033252	
          0.09178717	         -1.38366949	          0.12554002	          0.95345898	          7.20055468	        -35.27779361	         23.37838652	         34.57621342	        -45.02398017	          5.00531738	         -3.01478498	         -3.95195816	         -3.95195505	          0.21844584	          0.48923591	          0.52758589	          0.48258632	          0.78145857	          0.84459065	          0.49351184	          0.44380230	          0.25595861	          0.34538699	          0.56543260	          0.48659266	          0.42796349	          0.65372331	          0.69836060	          0.26004705	          0.23529422	          0.39964432	
          0.09943610	         -1.45280377	          0.13782930	          0.95264566	          6.31038457	        -34.90807089	         23.13764213	         34.15871955	        -45.53550168	          5.51672477	         -2.71474482	         -4.27450331	         -4.27450827	          0.21345418	          0.46130007	          0.49495762	          0.43044219	          0.80176265	          0.74977683	          0.54345690	          0.47639335	          0.22713683	          0.35128933	          0.50657753	          0.52940556	          0.37976465	          0.66279095	          0.79484317	          0.23214432	          0.29571517	          0.35465799	
          0.10708503	         -1.52502535	          0.15031380	          0.95279926	          5.26306832	        -34.21139955	         22.59969108	         33.45262080	        -45.59228688	          6.04213845	         -2.38971389	         -4.62417236	         -4.62418517	          0.21980427	          0.43051667	          0.44077763	          0.39181944	          0.79947626	          0.66535860	          0.60324668	          0.50205712	          0.20156041	          0.37668774	          0.45002031	          0.56471879	          0.33699846	          0.65226186	          0.85445079	          0.20872575	          0.36808684	          0.31474095	
          0.11473396	         -1.59115285	          0.16290066	          0.95392026	          4.10296409	        -33.26947600	         21.70871761	         32.49699621	        -45.25027519	          6.50535302	         -2.06013073	         -4.98550227	         -4.98552308	          0.22711175	          0.43476803	          0.39140318	          0.40346135	          0.78143732	          0.59041187	          0.67353017	          0.54268946	          0.17885987	          0.39593248	          0.39959106	          0.60788845	          0.29906542	          0.64852634	          0.88455958	          0.23796775	          0.43239372	          0.27930443	
